<mxfile host="app.diagrams.net" modified="2021-02-19T11:43:05.192Z" agent="5.0 (Macintosh; Intel Mac OS X 11_1_0) AppleWebKit/537.36 (KHTML, like Gecko) Chrome/88.0.4324.96 Safari/537.36" etag="aLeU0m7Fe_IvRfLbW-UJ" version="14.3.0" type="github">
  <diagram id="k6OBn8juP7j2Mj3HRDv1" name="Page-1">
    <mxGraphModel dx="1694" dy="906" grid="1" gridSize="10" guides="1" tooltips="1" connect="1" arrows="1" fold="1" page="1" pageScale="1" pageWidth="827" pageHeight="1169" math="0" shadow="0">
      <root>
        <mxCell id="0" />
        <mxCell id="1" parent="0" />
        <mxCell id="zqSOS_-I-J785_Dk-Pdv-24" value="" style="edgeStyle=orthogonalEdgeStyle;rounded=0;orthogonalLoop=1;jettySize=auto;html=1;" edge="1" parent="1" source="zqSOS_-I-J785_Dk-Pdv-1" target="zqSOS_-I-J785_Dk-Pdv-23">
          <mxGeometry relative="1" as="geometry" />
        </mxCell>
        <mxCell id="zqSOS_-I-J785_Dk-Pdv-1" value="START" style="ellipse;whiteSpace=wrap;html=1;" vertex="1" parent="1">
          <mxGeometry x="121" y="30" width="120" height="80" as="geometry" />
        </mxCell>
        <mxCell id="zqSOS_-I-J785_Dk-Pdv-18" style="edgeStyle=orthogonalEdgeStyle;rounded=0;orthogonalLoop=1;jettySize=auto;html=1;exitX=0.5;exitY=1;exitDx=0;exitDy=0;entryX=0.5;entryY=0;entryDx=0;entryDy=0;" edge="1" parent="1" target="zqSOS_-I-J785_Dk-Pdv-13">
          <mxGeometry relative="1" as="geometry">
            <mxPoint x="181" y="200" as="sourcePoint" />
          </mxGeometry>
        </mxCell>
        <mxCell id="zqSOS_-I-J785_Dk-Pdv-19" style="edgeStyle=orthogonalEdgeStyle;rounded=0;orthogonalLoop=1;jettySize=auto;html=1;exitX=0.5;exitY=1;exitDx=0;exitDy=0;entryX=0.5;entryY=0;entryDx=0;entryDy=0;" edge="1" parent="1" source="zqSOS_-I-J785_Dk-Pdv-13" target="zqSOS_-I-J785_Dk-Pdv-15">
          <mxGeometry relative="1" as="geometry" />
        </mxCell>
        <mxCell id="zqSOS_-I-J785_Dk-Pdv-13" value="count = 0" style="rounded=0;whiteSpace=wrap;html=1;" vertex="1" parent="1">
          <mxGeometry x="114" y="220" width="134" height="60" as="geometry" />
        </mxCell>
        <mxCell id="zqSOS_-I-J785_Dk-Pdv-138" style="edgeStyle=orthogonalEdgeStyle;rounded=0;orthogonalLoop=1;jettySize=auto;html=1;exitX=0.5;exitY=1;exitDx=0;exitDy=0;entryX=0.5;entryY=0;entryDx=0;entryDy=0;" edge="1" parent="1" source="zqSOS_-I-J785_Dk-Pdv-15" target="zqSOS_-I-J785_Dk-Pdv-21">
          <mxGeometry relative="1" as="geometry" />
        </mxCell>
        <mxCell id="zqSOS_-I-J785_Dk-Pdv-15" value="longest = 0" style="rounded=0;whiteSpace=wrap;html=1;" vertex="1" parent="1">
          <mxGeometry x="114" y="300" width="134" height="60" as="geometry" />
        </mxCell>
        <mxCell id="zqSOS_-I-J785_Dk-Pdv-72" style="edgeStyle=orthogonalEdgeStyle;rounded=0;orthogonalLoop=1;jettySize=auto;html=1;exitX=0.5;exitY=1;exitDx=0;exitDy=0;" edge="1" parent="1" source="zqSOS_-I-J785_Dk-Pdv-21" target="zqSOS_-I-J785_Dk-Pdv-71">
          <mxGeometry relative="1" as="geometry" />
        </mxCell>
        <mxCell id="zqSOS_-I-J785_Dk-Pdv-107" style="edgeStyle=orthogonalEdgeStyle;rounded=0;orthogonalLoop=1;jettySize=auto;html=1;exitX=1;exitY=0.5;exitDx=0;exitDy=0;entryX=0.5;entryY=0;entryDx=0;entryDy=0;" edge="1" parent="1" source="zqSOS_-I-J785_Dk-Pdv-21" target="zqSOS_-I-J785_Dk-Pdv-106">
          <mxGeometry relative="1" as="geometry" />
        </mxCell>
        <mxCell id="zqSOS_-I-J785_Dk-Pdv-21" value="FOR i = 0 to n-1&amp;nbsp;" style="shape=hexagon;perimeter=hexagonPerimeter2;whiteSpace=wrap;html=1;fixedSize=1;" vertex="1" parent="1">
          <mxGeometry x="104" y="400" width="154" height="60" as="geometry" />
        </mxCell>
        <mxCell id="zqSOS_-I-J785_Dk-Pdv-23" value="n = length of L" style="rounded=0;whiteSpace=wrap;html=1;" vertex="1" parent="1">
          <mxGeometry x="114" y="140" width="134" height="60" as="geometry" />
        </mxCell>
        <mxCell id="zqSOS_-I-J785_Dk-Pdv-62" value="NEXT" style="text;html=1;align=center;verticalAlign=middle;resizable=0;points=[];autosize=1;" vertex="1" parent="1">
          <mxGeometry x="256" y="410" width="50" height="20" as="geometry" />
        </mxCell>
        <mxCell id="zqSOS_-I-J785_Dk-Pdv-75" style="edgeStyle=orthogonalEdgeStyle;rounded=0;orthogonalLoop=1;jettySize=auto;html=1;exitX=0.5;exitY=1;exitDx=0;exitDy=0;entryX=0.5;entryY=0;entryDx=0;entryDy=0;" edge="1" parent="1" source="zqSOS_-I-J785_Dk-Pdv-71" target="zqSOS_-I-J785_Dk-Pdv-73">
          <mxGeometry relative="1" as="geometry" />
        </mxCell>
        <mxCell id="zqSOS_-I-J785_Dk-Pdv-71" value="return longest" style="shape=parallelogram;perimeter=parallelogramPerimeter;whiteSpace=wrap;html=1;fixedSize=1;" vertex="1" parent="1">
          <mxGeometry x="60" y="525" width="150" height="60" as="geometry" />
        </mxCell>
        <mxCell id="zqSOS_-I-J785_Dk-Pdv-73" value="END" style="ellipse;whiteSpace=wrap;html=1;" vertex="1" parent="1">
          <mxGeometry x="70" y="612" width="120" height="80" as="geometry" />
        </mxCell>
        <mxCell id="zqSOS_-I-J785_Dk-Pdv-77" value="DONE" style="text;html=1;align=center;verticalAlign=middle;resizable=0;points=[];autosize=1;" vertex="1" parent="1">
          <mxGeometry x="130" y="470" width="50" height="20" as="geometry" />
        </mxCell>
        <mxCell id="zqSOS_-I-J785_Dk-Pdv-131" style="edgeStyle=orthogonalEdgeStyle;rounded=0;orthogonalLoop=1;jettySize=auto;html=1;exitX=1;exitY=0.5;exitDx=0;exitDy=0;entryX=0.5;entryY=0;entryDx=0;entryDy=0;" edge="1" parent="1" source="zqSOS_-I-J785_Dk-Pdv-106" target="zqSOS_-I-J785_Dk-Pdv-129">
          <mxGeometry relative="1" as="geometry" />
        </mxCell>
        <mxCell id="zqSOS_-I-J785_Dk-Pdv-132" style="edgeStyle=orthogonalEdgeStyle;rounded=0;orthogonalLoop=1;jettySize=auto;html=1;exitX=0.5;exitY=1;exitDx=0;exitDy=0;entryX=0.5;entryY=0;entryDx=0;entryDy=0;" edge="1" parent="1" source="zqSOS_-I-J785_Dk-Pdv-106" target="zqSOS_-I-J785_Dk-Pdv-115">
          <mxGeometry relative="1" as="geometry" />
        </mxCell>
        <mxCell id="zqSOS_-I-J785_Dk-Pdv-106" value="L(i) == &#39;A&#39;?" style="rhombus;whiteSpace=wrap;html=1;" vertex="1" parent="1">
          <mxGeometry x="300" y="470" width="160" height="90" as="geometry" />
        </mxCell>
        <mxCell id="zqSOS_-I-J785_Dk-Pdv-134" style="edgeStyle=orthogonalEdgeStyle;rounded=0;orthogonalLoop=1;jettySize=auto;html=1;exitX=1;exitY=0.5;exitDx=0;exitDy=0;entryX=0.5;entryY=0;entryDx=0;entryDy=0;" edge="1" parent="1" source="zqSOS_-I-J785_Dk-Pdv-108" target="zqSOS_-I-J785_Dk-Pdv-110">
          <mxGeometry relative="1" as="geometry" />
        </mxCell>
        <mxCell id="zqSOS_-I-J785_Dk-Pdv-136" style="edgeStyle=orthogonalEdgeStyle;rounded=0;orthogonalLoop=1;jettySize=auto;html=1;exitX=0.5;exitY=1;exitDx=0;exitDy=0;entryX=0.864;entryY=0.983;entryDx=0;entryDy=0;entryPerimeter=0;" edge="1" parent="1" source="zqSOS_-I-J785_Dk-Pdv-108" target="zqSOS_-I-J785_Dk-Pdv-21">
          <mxGeometry relative="1" as="geometry">
            <Array as="points">
              <mxPoint x="560" y="780" />
              <mxPoint x="237" y="780" />
            </Array>
          </mxGeometry>
        </mxCell>
        <mxCell id="zqSOS_-I-J785_Dk-Pdv-108" value="count &amp;gt; longest ?" style="rhombus;whiteSpace=wrap;html=1;" vertex="1" parent="1">
          <mxGeometry x="480" y="632" width="160" height="90" as="geometry" />
        </mxCell>
        <mxCell id="zqSOS_-I-J785_Dk-Pdv-126" style="edgeStyle=orthogonalEdgeStyle;rounded=0;orthogonalLoop=1;jettySize=auto;html=1;exitX=0.5;exitY=1;exitDx=0;exitDy=0;entryX=0.864;entryY=0.983;entryDx=0;entryDy=0;entryPerimeter=0;" edge="1" parent="1" source="zqSOS_-I-J785_Dk-Pdv-110" target="zqSOS_-I-J785_Dk-Pdv-21">
          <mxGeometry relative="1" as="geometry">
            <Array as="points">
              <mxPoint x="717" y="780" />
              <mxPoint x="237" y="780" />
            </Array>
          </mxGeometry>
        </mxCell>
        <mxCell id="zqSOS_-I-J785_Dk-Pdv-110" value="longest = count" style="rounded=0;whiteSpace=wrap;html=1;" vertex="1" parent="1">
          <mxGeometry x="650" y="700" width="134" height="60" as="geometry" />
        </mxCell>
        <mxCell id="zqSOS_-I-J785_Dk-Pdv-128" style="edgeStyle=orthogonalEdgeStyle;rounded=0;orthogonalLoop=1;jettySize=auto;html=1;exitX=0.5;exitY=1;exitDx=0;exitDy=0;entryX=0.864;entryY=0.983;entryDx=0;entryDy=0;entryPerimeter=0;" edge="1" parent="1" source="zqSOS_-I-J785_Dk-Pdv-115" target="zqSOS_-I-J785_Dk-Pdv-21">
          <mxGeometry relative="1" as="geometry">
            <Array as="points">
              <mxPoint x="380" y="780" />
              <mxPoint x="237" y="780" />
            </Array>
          </mxGeometry>
        </mxCell>
        <mxCell id="zqSOS_-I-J785_Dk-Pdv-115" value="count = 0" style="rounded=0;whiteSpace=wrap;html=1;" vertex="1" parent="1">
          <mxGeometry x="313" y="600" width="134" height="60" as="geometry" />
        </mxCell>
        <mxCell id="zqSOS_-I-J785_Dk-Pdv-130" style="edgeStyle=orthogonalEdgeStyle;rounded=0;orthogonalLoop=1;jettySize=auto;html=1;exitX=0.5;exitY=1;exitDx=0;exitDy=0;entryX=0.5;entryY=0;entryDx=0;entryDy=0;" edge="1" parent="1" source="zqSOS_-I-J785_Dk-Pdv-129" target="zqSOS_-I-J785_Dk-Pdv-108">
          <mxGeometry relative="1" as="geometry" />
        </mxCell>
        <mxCell id="zqSOS_-I-J785_Dk-Pdv-129" value="count++" style="rounded=0;whiteSpace=wrap;html=1;" vertex="1" parent="1">
          <mxGeometry x="493" y="540" width="134" height="60" as="geometry" />
        </mxCell>
        <mxCell id="zqSOS_-I-J785_Dk-Pdv-133" value="TRUE" style="text;html=1;align=center;verticalAlign=middle;resizable=0;points=[];autosize=1;" vertex="1" parent="1">
          <mxGeometry x="447" y="490" width="50" height="20" as="geometry" />
        </mxCell>
        <mxCell id="zqSOS_-I-J785_Dk-Pdv-137" value="FALSE" style="text;html=1;align=center;verticalAlign=middle;resizable=0;points=[];autosize=1;" vertex="1" parent="1">
          <mxGeometry x="330" y="560" width="50" height="20" as="geometry" />
        </mxCell>
        <mxCell id="zqSOS_-I-J785_Dk-Pdv-139" value="TRUE" style="text;html=1;align=center;verticalAlign=middle;resizable=0;points=[];autosize=1;" vertex="1" parent="1">
          <mxGeometry x="627" y="650" width="50" height="20" as="geometry" />
        </mxCell>
        <mxCell id="zqSOS_-I-J785_Dk-Pdv-140" value="FALSE" style="text;html=1;align=center;verticalAlign=middle;resizable=0;points=[];autosize=1;" vertex="1" parent="1">
          <mxGeometry x="510" y="720" width="50" height="20" as="geometry" />
        </mxCell>
      </root>
    </mxGraphModel>
  </diagram>
</mxfile>
